<svg width="500" height="548" viewBox="0 0 500 548" fill="none" xmlns="http://www.w3.org/2000/svg">
<g clip-path="url(#clip0_20_133)">
<path d="M500 187.66C500 245.227 487.526 291.009 462.579 325.005C437.631 359.002 402.025 376 355.759 376C327.636 376 303.959 369.201 284.726 355.602C265.404 342.004 251.433 323.872 242.815 301.208C232.382 319.793 218.094 334.162 199.951 344.315C181.807 354.56 161.622 359.682 139.396 359.682C97.2126 359.682 64.1006 344.134 40.0604 313.039C16.0201 282.034 4 240.241 4 187.66C4 135.079 16.0201 93.3767 40.0604 62.5533C64.1006 31.7299 97.2126 16.3182 139.396 16.3182C162.076 16.3182 182.397 21.4404 200.359 31.6846C218.23 41.8382 232.382 56.2073 242.815 74.792C251.433 52.1278 265.404 33.9964 284.726 20.3978C303.959 6.79926 327.636 0 355.759 0C402.025 0 437.631 16.8622 462.579 50.5866C487.526 84.4016 500 130.093 500 187.66ZM216.28 187.66C216.28 166.356 210.156 148.904 197.909 135.306C185.663 121.707 169.787 114.908 150.283 114.908C130.325 114.908 114.131 121.707 101.703 135.306C89.1841 148.904 82.9246 166.356 82.9246 187.66C82.9246 208.964 89.1841 226.28 101.703 239.606C114.131 253.024 130.325 259.732 150.283 259.732C169.787 259.732 185.663 253.024 197.909 239.606C210.156 226.28 216.28 208.964 216.28 187.66ZM422.436 187.66C422.436 162.729 415.632 142.694 402.025 127.554C388.417 112.324 370.047 104.709 346.914 104.709C324.234 104.709 306.227 112.415 292.891 127.826C279.465 143.238 272.752 163.183 272.752 187.66C272.752 212.137 279.465 232.082 292.891 247.494C306.227 262.905 324.234 270.611 346.914 270.611C370.047 270.611 388.417 262.996 402.025 247.766C415.632 232.626 422.436 212.591 422.436 187.66Z" fill="#EBEBD3"/>
</g>
<rect width="500" height="120" transform="translate(0 428)" fill="#EBEBD3"/>
<path d="M44.66 458.58H68.18C74.5267 458.58 79.5933 460.26 83.38 463.62C87.1667 466.927 89.06 471.54 89.06 477.46C89.06 483.54 87.1667 488.207 83.38 491.46C79.6467 494.713 74.58 496.34 68.18 496.34H56.82V514.5H44.66V458.58ZM66.42 486.18C73.3 486.18 76.74 483.273 76.74 477.46C76.74 474.207 75.8067 471.94 73.94 470.66C72.1267 469.38 69.62 468.74 66.42 468.74H56.82V486.18H66.42ZM102.66 458.58H126.9C133.247 458.58 138.18 460.18 141.7 463.38C145.273 466.527 147.06 471.087 147.06 477.06C147.06 481.22 146.1 484.767 144.18 487.7C142.26 490.58 139.54 492.687 136.02 494.02L146.66 514.5H134.18L124.34 495.54H114.82V514.5H102.66V458.58ZM124.74 485.38C127.833 485.38 130.26 484.713 132.02 483.38C133.833 482.047 134.74 479.94 134.74 477.06C134.74 474.02 133.86 471.887 132.1 470.66C130.34 469.38 127.887 468.74 124.74 468.74H114.82V485.38H124.74ZM188.98 515.7C183.38 515.7 178.287 514.473 173.7 512.02C169.167 509.567 165.593 506.153 162.98 501.78C160.367 497.353 159.06 492.287 159.06 486.58C159.06 480.873 160.367 475.807 162.98 471.38C165.593 466.953 169.167 463.513 173.7 461.06C178.287 458.607 183.38 457.38 188.98 457.38C194.58 457.38 199.62 458.607 204.1 461.06C208.633 463.513 212.207 466.953 214.82 471.38C217.433 475.807 218.74 480.873 218.74 486.58C218.74 492.287 217.433 497.353 214.82 501.78C212.207 506.153 208.633 509.567 204.1 512.02C199.62 514.473 194.58 515.7 188.98 515.7ZM188.98 504.5C192.18 504.5 195.087 503.78 197.7 502.34C200.367 500.847 202.473 498.767 204.02 496.1C205.567 493.38 206.34 490.207 206.34 486.58C206.34 483.007 205.567 479.887 204.02 477.22C202.527 474.5 200.447 472.42 197.78 470.98C195.167 469.487 192.233 468.74 188.98 468.74C185.673 468.74 182.687 469.487 180.02 470.98C177.407 472.42 175.327 474.5 173.78 477.22C172.233 479.887 171.46 483.007 171.46 486.58C171.46 490.207 172.233 493.38 173.78 496.1C175.327 498.767 177.433 500.847 180.1 502.34C182.767 503.78 185.727 504.5 188.98 504.5ZM233.426 458.58H260.866C266.146 458.58 270.279 459.887 273.266 462.5C276.252 465.113 277.746 468.9 277.746 473.86C277.746 476.367 277.159 478.66 275.986 480.74C274.812 482.767 273.212 484.34 271.186 485.46C273.959 486.473 276.039 488.02 277.426 490.1C278.812 492.127 279.506 494.793 279.506 498.1C279.506 501.46 278.732 504.393 277.186 506.9C275.692 509.353 273.612 511.247 270.946 512.58C268.332 513.86 265.426 514.5 262.226 514.5H233.426V458.58ZM258.546 481.3C260.679 481.3 262.359 480.767 263.586 479.7C264.812 478.633 265.426 476.927 265.426 474.58C265.426 472.02 264.812 470.26 263.586 469.3C262.412 468.34 260.599 467.86 258.146 467.86H245.586V481.3H258.546ZM259.266 505.22C261.879 505.22 263.852 504.713 265.186 503.7C266.572 502.633 267.266 500.793 267.266 498.18C267.266 495.513 266.546 493.593 265.106 492.42C263.719 491.247 261.639 490.66 258.866 490.66H245.586V505.22H259.266ZM294.316 458.58H306.476V504.34H332.076V514.5H294.316V458.58ZM344.113 458.58H382.913V468.74H356.273V481.7H375.873V491.46H356.273V504.34H382.913V514.5H344.113V458.58ZM396.801 458.58H408.801L426.001 496.02L443.281 458.58H455.201V514.5H443.601V482.74L428.801 514.5H423.201L408.481 482.74V514.5H396.801V458.58Z" fill="#EF233C"/>
<defs>
<clipPath id="clip0_20_133">
<rect width="376" height="496" fill="white" transform="matrix(0 -1 1 0 4 376)"/>
</clipPath>
</defs>
</svg>
